<svg width="27" height="13" viewBox="0 0 27 13" fill="none" xmlns="http://www.w3.org/2000/svg">
<path d="M0.144 10H4.5V9.604L4.2 9.52C3.78 9.4 3.672 9.376 3.672 8.56V6.052H5.88V8.56C5.88 9.376 5.772 9.4 5.352 9.52L5.052 9.604V10H9.408V9.604L9.072 9.52C8.664 9.412 8.544 9.376 8.544 8.56V3.124C8.544 2.308 8.664 2.26 9.072 2.164L9.408 2.08V1.684H5.052V2.08L5.352 2.164C5.772 2.284 5.88 2.308 5.88 3.124V5.428H3.672V3.124C3.672 2.308 3.78 2.284 4.2 2.164L4.5 2.08V1.684H0.144V2.08L0.48 2.164C0.888 2.26 1.008 2.308 1.008 3.124V8.56C1.008 9.376 0.888 9.424 0.48 9.52L0.144 9.604V10ZM9.62278 10H13.4028V9.616L13.1748 9.556C12.7068 9.436 12.6708 9.4 12.6708 8.836V5.152C12.6708 4.6 12.6828 4.216 12.7188 3.652L12.5628 3.544L9.56278 3.844V4.12L9.94678 4.408C10.3068 4.684 10.3548 4.732 10.3548 5.26V8.836C10.3548 9.388 10.3308 9.424 9.85078 9.556L9.62278 9.616V10ZM11.4588 3.148C12.1548 3.148 12.6948 2.692 12.6948 2.008C12.6948 1.324 12.1548 0.868 11.4588 0.868C10.7628 0.868 10.2228 1.324 10.2228 2.008C10.2228 2.692 10.7628 3.148 11.4588 3.148ZM13.5486 10H17.3286V9.604L17.0526 9.556C16.6326 9.484 16.5966 9.436 16.5966 8.836V5.068C16.7286 4.96 16.8726 4.852 17.0646 4.852C17.1726 4.852 17.2686 4.876 17.3406 4.984C17.6526 5.428 17.7966 5.572 18.4206 5.572C18.9486 5.572 19.3446 5.2 19.3446 4.552C19.3446 3.892 18.9606 3.556 18.3486 3.556C17.5926 3.556 16.9086 4.144 16.5726 4.54H16.5126L16.5366 3.652L16.3806 3.544L13.4886 3.844V4.12L13.8726 4.408C14.2326 4.684 14.2806 4.732 14.2806 5.26V8.836C14.2806 9.388 14.2566 9.424 13.7766 9.556L13.5486 9.616V10ZM21.05 12.508C22.202 12.508 22.658 11.884 23.174 10.696L25.514 5.296C25.874 4.456 25.958 4.276 26.27 4.168L26.51 4.084V3.7H24.122V4.084L24.458 4.168C24.734 4.24 24.866 4.384 24.866 4.648C24.866 4.852 24.806 5.092 24.698 5.368L23.81 7.66H23.762L22.814 5.368C22.706 5.116 22.646 4.876 22.646 4.696C22.646 4.372 22.814 4.228 23.042 4.168L23.366 4.084V3.7H19.37V4.084L19.55 4.144C19.778 4.216 19.874 4.324 20.27 5.176L22.646 10.264L22.538 10.504C22.106 11.464 21.89 11.68 21.638 11.68C21.53 11.68 21.458 11.608 21.41 11.428C21.278 10.924 21.05 10.756 20.51 10.756C20.018 10.756 19.706 11.044 19.706 11.524C19.706 12.136 20.306 12.508 21.05 12.508Z" fill="#2FBC5C"/>
</svg>
